<svg width="36" height="36" viewBox="0 0 36 36" fill="none" xmlns="http://www.w3.org/2000/svg">
<rect x="2" y="2" width="32" height="32" rx="16" fill="#F4EBFF"/>
<rect x="2" y="2" width="32" height="32" rx="16" stroke="#F9F5FF" stroke-width="4"/>
<path d="M20.667 20.6667V12H10.667V20.6667H20.667ZM20.667 20.6667H25.3337V17.3333L23.3337 15.3333H20.667V20.6667ZM15.3337 22.3333C15.3337 23.2538 14.5875 24 13.667 24C12.7465 24 12.0003 23.2538 12.0003 22.3333C12.0003 21.4129 12.7465 20.6667 13.667 20.6667C14.5875 20.6667 15.3337 21.4129 15.3337 22.3333ZM24.0003 22.3333C24.0003 23.2538 23.2541 24 22.3337 24C21.4132 24 20.667 23.2538 20.667 22.3333C20.667 21.4129 21.4132 20.6667 22.3337 20.6667C23.2541 20.6667 24.0003 21.4129 24.0003 22.3333Z" stroke="#7F56D9" stroke-width="1.33333" stroke-linecap="round" stroke-linejoin="round"/>
</svg>
